<svg width="176" height="23" viewBox="0 0 176 23" fill="none" xmlns="http://www.w3.org/2000/svg">
<path d="M9.93896 16.71C9.93896 16.0736 9.71436 15.5869 9.26514 15.25C8.81592 14.9056 8.00732 14.5462 6.83936 14.1719C5.67139 13.79 4.74674 13.4157 4.06543 13.0488C2.20866 12.0456 1.28027 10.6942 1.28027 8.99463C1.28027 8.11117 1.52734 7.32503 2.02148 6.63623C2.52311 5.93994 3.23812 5.39714 4.1665 5.00781C5.10238 4.61849 6.15055 4.42383 7.31104 4.42383C8.479 4.42383 9.51969 4.63721 10.4331 5.06396C11.3465 5.48324 12.054 6.07845 12.5557 6.84961C13.0648 7.62077 13.3193 8.49674 13.3193 9.47754H9.9502C9.9502 8.72884 9.71436 8.1486 9.24268 7.73682C8.771 7.31755 8.1084 7.10791 7.25488 7.10791C6.43132 7.10791 5.79118 7.28385 5.33447 7.63574C4.87777 7.98014 4.64941 8.43685 4.64941 9.00586C4.64941 9.53743 4.9152 9.98291 5.44678 10.3423C5.98584 10.7017 6.77572 11.0386 7.81641 11.353C9.73307 11.9295 11.1294 12.6445 12.0054 13.498C12.8813 14.3516 13.3193 15.4147 13.3193 16.6875C13.3193 18.1025 12.784 19.2144 11.7134 20.0229C10.6427 20.8241 9.2015 21.2246 7.38965 21.2246C6.13184 21.2246 4.98633 20.9963 3.95312 20.5396C2.91992 20.0754 2.13005 19.4427 1.5835 18.6416C1.04443 17.8405 0.774902 16.9121 0.774902 15.8564H4.15527C4.15527 17.6608 5.2334 18.563 7.38965 18.563C8.19076 18.563 8.81592 18.402 9.26514 18.0801C9.71436 17.7507 9.93896 17.2939 9.93896 16.71ZM27.9863 4.64844V15.4185C27.9863 17.2078 27.4248 18.6229 26.3018 19.6636C25.1862 20.7043 23.6589 21.2246 21.7197 21.2246C19.8105 21.2246 18.2944 20.7192 17.1714 19.7085C16.0483 18.6978 15.4756 17.3089 15.4531 15.542V4.64844H18.8223V15.4409C18.8223 16.5116 19.0768 17.2939 19.5859 17.7881C20.1025 18.2747 20.8138 18.5181 21.7197 18.5181C23.6139 18.5181 24.576 17.5223 24.606 15.5308V4.64844H27.9863ZM43.6865 18.9336C43.0801 19.6598 42.2228 20.2251 41.1147 20.6294C40.0067 21.0262 38.7788 21.2246 37.4312 21.2246C36.0161 21.2246 34.7733 20.9176 33.7026 20.3037C32.6395 19.6823 31.8159 18.7839 31.2319 17.6084C30.6554 16.4329 30.3597 15.0516 30.3447 13.4644V12.3525C30.3447 10.7204 30.618 9.30908 31.1646 8.11865C31.7186 6.92074 32.5122 6.00732 33.5454 5.37842C34.5861 4.74202 35.8027 4.42383 37.1953 4.42383C39.1344 4.42383 40.6506 4.88802 41.7437 5.81641C42.8368 6.7373 43.4844 8.08122 43.6865 9.84814H40.4072C40.2575 8.91227 39.9243 8.22721 39.4077 7.79297C38.8986 7.35872 38.1948 7.1416 37.2964 7.1416C36.1509 7.1416 35.2786 7.5721 34.6797 8.43311C34.0807 9.29411 33.7775 10.5744 33.77 12.2739V13.3184C33.77 15.0329 34.0957 16.3281 34.7471 17.2041C35.3984 18.0801 36.353 18.5181 37.6108 18.5181C38.8761 18.5181 39.7783 18.2485 40.3174 17.7095V14.8906H37.2515V12.4087H43.6865V18.9336ZM55.6582 17.6309H49.751L48.6279 21H45.0454L51.1323 4.64844H54.2544L60.375 21H56.7925L55.6582 17.6309ZM50.6606 14.9019H54.7485L52.6934 8.78125L50.6606 14.9019ZM67.9556 15.0142H65.2715V21H61.9023V4.64844H67.978C69.9097 4.64844 71.3996 5.07894 72.4478 5.93994C73.4959 6.80094 74.02 8.01758 74.02 9.58984C74.02 10.7054 73.7767 11.6375 73.29 12.3862C72.8109 13.1274 72.0809 13.7189 71.1001 14.1606L74.6377 20.8428V21H71.0215L67.9556 15.0142ZM65.2715 12.2852H67.9893C68.8353 12.2852 69.4904 12.0718 69.9546 11.645C70.4188 11.2108 70.6509 10.6156 70.6509 9.85938C70.6509 9.08822 70.43 8.48177 69.9883 8.04004C69.554 7.59831 68.884 7.37744 67.978 7.37744H65.2715V12.2852ZM89.4282 15.5532C89.3009 17.3127 88.6496 18.6978 87.4741 19.7085C86.3062 20.7192 84.7638 21.2246 82.8472 21.2246C80.7508 21.2246 79.0999 20.5208 77.8945 19.1133C76.6966 17.6982 76.0977 15.7591 76.0977 13.2959V12.2964C76.0977 10.7241 76.3747 9.33903 76.9287 8.14111C77.4827 6.9432 78.2726 6.02604 79.2983 5.38965C80.3315 4.74577 81.5295 4.42383 82.8921 4.42383C84.7788 4.42383 86.2987 4.9292 87.4517 5.93994C88.6047 6.95068 89.271 8.36947 89.4507 10.1963H86.0815C85.9992 9.14062 85.7035 8.37695 85.1943 7.90527C84.6927 7.42611 83.9253 7.18652 82.8921 7.18652C81.769 7.18652 80.9268 7.59082 80.3652 8.39941C79.8112 9.20052 79.5267 10.4471 79.5117 12.1392V13.3745C79.5117 15.1414 79.7775 16.4329 80.3091 17.249C80.8481 18.0651 81.6942 18.4731 82.8472 18.4731C83.8879 18.4731 84.6628 18.2373 85.1719 17.7656C85.6885 17.2865 85.9842 16.549 86.0591 15.5532H89.4282ZM105.072 13.1948C105.072 14.8045 104.788 16.2158 104.219 17.4287C103.65 18.6416 102.834 19.5775 101.771 20.2363C100.715 20.8952 99.502 21.2246 98.1318 21.2246C96.7767 21.2246 95.5675 20.8989 94.5044 20.2476C93.4412 19.5962 92.6177 18.6678 92.0337 17.4624C91.4497 16.2495 91.154 14.8569 91.1465 13.2847V12.4761C91.1465 10.8664 91.4347 9.45133 92.0112 8.23096C92.5952 7.00309 93.415 6.06348 94.4707 5.41211C95.5339 4.75326 96.7467 4.42383 98.1094 4.42383C99.472 4.42383 100.681 4.75326 101.737 5.41211C102.8 6.06348 103.62 7.00309 104.196 8.23096C104.78 9.45133 105.072 10.8626 105.072 12.4648V13.1948ZM101.658 12.4536C101.658 10.7391 101.351 9.43636 100.737 8.54541C100.123 7.65446 99.2474 7.20898 98.1094 7.20898C96.9788 7.20898 96.1066 7.65072 95.4927 8.53418C94.8787 9.41016 94.568 10.6979 94.5605 12.3975V13.1948C94.5605 14.8644 94.8675 16.1597 95.4814 17.0806C96.0954 18.0015 96.9788 18.4619 98.1318 18.4619C99.2624 18.4619 100.131 18.0202 100.737 17.1367C101.344 16.2458 101.651 14.9505 101.658 13.251V12.4536ZM116.505 17.6309H110.598L109.475 21H105.892L111.979 4.64844H115.101L121.222 21H117.639L116.505 17.6309ZM111.507 14.9019H115.595L113.54 8.78125L111.507 14.9019ZM133.71 7.37744H128.701V21H125.332V7.37744H120.391V4.64844H133.71V7.37744ZM145.479 13.9136H139.011V18.2935H146.603V21H135.642V4.64844H146.58V7.37744H139.011V11.2744H145.479V13.9136ZM148.579 21V4.64844H153.61C155.048 4.64844 156.332 4.97412 157.462 5.62549C158.6 6.26937 159.488 7.19027 160.124 8.38818C160.76 9.57861 161.079 10.9338 161.079 12.4536V13.2061C161.079 14.7259 160.764 16.0773 160.135 17.2603C159.514 18.4432 158.634 19.3604 157.496 20.0117C156.358 20.6631 155.074 20.9925 153.644 21H148.579ZM151.948 7.37744V18.2935H153.577C154.894 18.2935 155.901 17.863 156.598 17.002C157.294 16.141 157.65 14.9093 157.665 13.3071V12.4424C157.665 10.7803 157.32 9.52246 156.631 8.66895C155.943 7.80794 154.936 7.37744 153.61 7.37744H151.948Z" fill="#060200"/>
<path d="M94 14.5L101.353 7.14746" stroke="black" stroke-width="2"/>
<path d="M94 19.8525L103.353 10.5" stroke="black" stroke-width="2"/>
</svg>
